<svg width="20" height="21" viewBox="0 0 20 21" fill="none" xmlns="http://www.w3.org/2000/svg">
<path d="M10.46 15.6887C10.5104 15.8127 10.5375 15.9449 10.54 16.0787C10.5395 16.211 10.5127 16.3419 10.4612 16.4638C10.4097 16.5857 10.3345 16.6961 10.24 16.7887L10.09 16.9087C10.0367 16.9446 9.97969 16.9748 9.92 16.9987L9.73 17.0587H9.54C9.40839 17.0595 9.27793 17.0343 9.15609 16.9845C9.03426 16.9347 8.92344 16.8614 8.83 16.7687C8.64727 16.5771 8.54368 16.3235 8.54 16.0587C8.53885 15.9255 8.56259 15.7932 8.61 15.6687C8.66172 15.5487 8.73646 15.44 8.83 15.3487C9.01736 15.1625 9.27081 15.0579 9.535 15.0579C9.79919 15.0579 10.0526 15.1625 10.24 15.3487C10.3391 15.4432 10.4144 15.5597 10.46 15.6887ZM10.75 5.06872C10.228 4.95529 9.68713 4.96112 9.1677 5.08578C8.64826 5.21045 8.16366 5.45073 7.75 5.78872C7.34584 6.11507 7.02011 6.52799 6.79685 6.99703C6.57358 7.46607 6.45846 7.97925 6.46 8.49872C6.46 8.76393 6.56536 9.01829 6.75289 9.20582C6.94043 9.39336 7.19478 9.49872 7.46 9.49872C7.72522 9.49872 7.97957 9.39336 8.16711 9.20582C8.35464 9.01829 8.46 8.76393 8.46 8.49872C8.4582 8.2774 8.50574 8.05845 8.59914 7.8578C8.69255 7.65715 8.82949 7.47983 9 7.33872C9.18221 7.18288 9.39789 7.07114 9.63028 7.01218C9.86268 6.95321 10.1055 6.94861 10.34 6.99872C10.6659 7.06411 10.9609 7.23592 11.1786 7.48717C11.3963 7.73841 11.5243 8.05485 11.5427 8.38678C11.561 8.71871 11.4685 9.04731 11.2798 9.32098C11.0911 9.59465 10.8168 9.79787 10.5 9.89872C9.92107 10.127 9.42244 10.5212 9.06664 11.0317C8.71085 11.5423 8.51372 12.1466 8.5 12.7687V12.9987C8.5 13.2639 8.60536 13.5183 8.79289 13.7058C8.98043 13.8934 9.23478 13.9987 9.5 13.9987C9.76522 13.9987 10.0196 13.8934 10.2071 13.7058C10.3946 13.5183 10.5 13.2639 10.5 12.9987V12.7987C10.5088 12.5903 10.5726 12.388 10.6851 12.2124C10.7975 12.0367 10.9545 11.894 11.14 11.7987C11.8695 11.5542 12.4984 11.0767 12.93 10.4398C13.3616 9.80295 13.572 9.0419 13.5288 8.27376C13.4856 7.50561 13.1912 6.77293 12.691 6.18843C12.1907 5.60392 11.5123 5.19997 10.76 5.03872L10.75 5.06872ZM20 3.99872V17.9987C20 18.7944 19.6839 19.5574 19.1213 20.12C18.5587 20.6826 17.7956 20.9987 17 20.9987H3C2.20435 20.9987 1.44129 20.6826 0.87868 20.12C0.316071 19.5574 0 18.7944 0 17.9987V3.99872C0 3.20307 0.316071 2.44001 0.87868 1.8774C1.44129 1.31479 2.20435 0.998718 3 0.998718H17C17.7956 0.998718 18.5587 1.31479 19.1213 1.8774C19.6839 2.44001 20 3.20307 20 3.99872ZM18 3.99872C18 3.7335 17.8946 3.47915 17.7071 3.29161C17.5196 3.10408 17.2652 2.99872 17 2.99872H3C2.73478 2.99872 2.48043 3.10408 2.29289 3.29161C2.10536 3.47915 2 3.7335 2 3.99872V17.9987C2 18.2639 2.10536 18.5183 2.29289 18.7058C2.48043 18.8934 2.73478 18.9987 3 18.9987H17C17.2652 18.9987 17.5196 18.8934 17.7071 18.7058C17.8946 18.5183 18 18.2639 18 17.9987V3.99872Z" fill="#231F20"/>
</svg>
